<svg xmlns="http://www.w3.org/2000/svg" xmlns:xlink="http://www.w3.org/1999/xlink" version="1.1" x="0px" y="0px" viewBox="0 0 500 625" enable-background="new 0 0 500 500" xml:space="preserve"><g><path d="M320.912,61H179.088c-14.293,0-25.922,13.009-25.922,29v320c0,15.99,11.628,29,25.922,29h141.824   c14.293,0,25.922-13.01,25.922-29V90C346.834,74.009,335.205,61,320.912,61z M332.834,410c0,8.271-5.348,15-11.922,15H179.088   c-6.574,0-11.922-6.729-11.922-15V90c0-8.271,5.348-15,11.922-15h141.824c6.574,0,11.922,6.729,11.922,15V410z"/><circle cx="250" cy="396.833" r="16.333"/><path d="M267.245,90.091h-34.489c-3.214,0-5.821,2.606-5.821,5.821c0,3.216,2.607,5.822,5.821,5.822h34.489   c3.215,0,5.82-2.606,5.82-5.822C273.065,92.698,270.46,90.091,267.245,90.091z"/></g></svg>